<svg width="5" height="6" viewBox="0 0 5 6" fill="none" xmlns="http://www.w3.org/2000/svg">
<path d="M4.22879 0.0554179C4.06226 -0.0302843 3.86179 -0.015727 3.70938 0.0931353L1 2.02841V0.500002C1 0.223859 0.776142 1.80153e-06 0.5 1.80153e-06C0.223858 1.80153e-06 0 0.223859 0 0.500002V5.5C0 5.77614 0.223858 6 0.5 6C0.776142 6 1 5.77614 1 5.5V3.9716L3.70938 5.90687C3.86179 6.01573 4.06226 6.03029 4.22879 5.94459C4.39533 5.85888 4.5 5.6873 4.5 5.5V0.500002C4.5 0.312708 4.39533 0.14112 4.22879 0.0554179Z" fill="white"/>
</svg>
