<svg width="5" height="6" viewBox="0 0 5 6" fill="none" xmlns="http://www.w3.org/2000/svg">
<path d="M0.271209 0.055418C0.437745 -0.0302842 0.638212 -0.0157272 0.790619 0.0931351L3.5 2.02841V0.500002C3.5 0.223859 3.72386 1.83806e-06 4 1.83806e-06C4.27614 1.83806e-06 4.5 0.223859 4.5 0.500002V5.5C4.5 5.77614 4.27614 6 4 6C3.72386 6 3.5 5.77614 3.5 5.5V3.9716L0.790619 5.90687C0.638212 6.01573 0.437745 6.03029 0.271209 5.94459C0.104674 5.85888 0 5.6873 0 5.5V0.500002C0 0.312708 0.104674 0.14112 0.271209 0.055418Z" fill="white"/>
</svg>
