<svg width="61" height="61" viewBox="0 0 61 61" fill="none" xmlns="http://www.w3.org/2000/svg">
<path d="M30.4999 0.0833435C13.7099 0.0833435 0.083252 13.71 0.083252 30.5C0.083252 47.29 13.7099 60.9167 30.4999 60.9167C47.2899 60.9167 60.9166 47.29 60.9166 30.5C60.9166 13.71 47.2899 0.0833435 30.4999 0.0833435ZM24.4166 42.6667C22.7437 42.6667 21.3749 41.2979 21.3749 39.625V21.375C21.3749 19.7021 22.7437 18.3333 24.4166 18.3333C26.0895 18.3333 27.4583 19.7021 27.4583 21.375V39.625C27.4583 41.2979 26.0895 42.6667 24.4166 42.6667ZM36.5833 42.6667C34.9103 42.6667 33.5416 41.2979 33.5416 39.625V21.375C33.5416 19.7021 34.9103 18.3333 36.5833 18.3333C38.2562 18.3333 39.6249 19.7021 39.6249 21.375V39.625C39.6249 41.2979 38.2562 42.6667 36.5833 42.6667Z" fill="white"/>
</svg>
